<svg xmlns="http://www.w3.org/2000/svg" viewBox="0 0 16 20"><g fill="#183153" stroke="#183153" stroke-width=".5"><path d="M14.358 4.146C12.976 2.146 10.788 1 8.352 1 5.916 1 3.727 2.147 2.345 4.146.971 6.136.653 8.654 1.495 10.88a5.755 5.755 0 001.06 1.751l5.315 6.243a.632.632 0 00.963 0l5.314-6.241a5.76 5.76 0 001.06-1.749c.843-2.229.526-4.747-.85-6.737zm-.336 6.294a4.513 4.513 0 01-.837 1.37l-4.833 5.677-4.836-5.68a4.516 4.516 0 01-.837-1.371c-.695-1.84-.431-3.923.707-5.57a5.955 5.955 0 014.966-2.6c2.013 0 3.823.947 4.965 2.6a6.046 6.046 0 01.705 5.574z"/><path d="M8.352 4.754a3.547 3.547 0 00-3.544 3.543 3.547 3.547 0 003.544 3.544 3.547 3.547 0 003.543-3.544 3.547 3.547 0 00-3.543-3.543zm0 5.821a2.28 2.28 0 01-2.278-2.278A2.28 2.28 0 018.352 6.02a2.28 2.28 0 012.277 2.278 2.28 2.28 0 01-2.277 2.278z"/></g></svg>
