<svg width="83" height="62" viewBox="0 0 83 62" fill="none" xmlns="http://www.w3.org/2000/svg">
<path d="M19.5417 24.4107C18.6311 24.4107 17.7572 24.5495 16.8875 24.6761C17.1692 23.7288 17.4592 22.7651 17.9247 21.8995C18.3902 20.6418 19.117 19.5515 19.8397 18.4531C20.4441 17.2649 21.5098 16.4605 22.2938 15.4437C23.1146 14.4555 24.2334 13.7981 25.1195 12.9774C25.9892 12.1199 27.1285 11.6911 28.035 11.0868C28.9823 10.5437 29.8071 9.94345 30.6891 9.65762L32.8901 8.75112L34.8256 7.9467L32.8452 0.0332031L30.4074 0.621201C29.6275 0.817201 28.6761 1.04587 27.594 1.31945C26.4874 1.52362 25.3073 2.08304 23.9925 2.59345C22.694 3.17329 21.1913 3.56529 19.7948 4.49629C18.3902 5.38645 16.7691 6.12962 15.3399 7.32195C13.9557 8.55104 12.2856 9.61679 11.0524 11.1807C9.7049 12.6425 8.37373 14.1779 7.34065 15.9255C6.14423 17.5915 5.33165 19.4209 4.47415 21.2298C3.69832 23.0387 3.07357 24.8885 2.56315 26.6851C1.5954 30.2866 1.16257 33.7085 0.995149 36.6362C0.856316 39.568 0.937983 42.0058 1.10948 43.7698C1.17073 44.6028 1.28507 45.4113 1.36673 45.9707L1.46882 46.6567L1.57498 46.6322C2.30125 50.0248 3.97314 53.1424 6.39725 55.6244C8.82136 58.1065 11.8986 59.8516 15.2731 60.6577C18.6476 61.4639 22.1813 61.2983 25.4656 60.18C28.7498 59.0617 31.6504 57.0365 33.8317 54.3386C36.013 51.6407 37.386 48.3804 37.7918 44.9347C38.1975 41.4891 37.6195 37.999 36.1246 34.8682C34.6297 31.7374 32.2789 29.0937 29.3443 27.2431C26.4097 25.3925 23.0111 24.4105 19.5417 24.4107ZM64.4583 24.4107C63.5477 24.4107 62.6739 24.5495 61.8042 24.6761C62.0859 23.7288 62.3758 22.7651 62.8413 21.8995C63.3068 20.6418 64.0336 19.5515 64.7564 18.4531C65.3607 17.2649 66.4265 16.4605 67.2105 15.4437C68.0312 14.4555 69.1501 13.7981 70.0361 12.9774C70.9059 12.1199 72.0452 11.6911 72.9517 11.0868C73.899 10.5437 74.7238 9.94345 75.6058 9.65762L77.8067 8.75112L79.7422 7.9467L77.7618 0.0332031L75.3241 0.621201C74.5442 0.817201 73.5927 1.04587 72.5107 1.31945C71.4041 1.52362 70.224 2.08304 68.9091 2.59345C67.6147 3.17737 66.108 3.56529 64.7115 4.50037C63.3068 5.39054 61.6857 6.1337 60.2566 7.32604C58.8723 8.55512 57.2022 9.62087 55.9691 11.1807C54.6216 12.6425 53.2904 14.1779 52.2573 15.9255C51.0609 17.5915 50.2483 19.4209 49.3908 21.2298C48.615 23.0387 47.9902 24.8885 47.4798 26.6851C46.5121 30.2866 46.0792 33.7085 45.9118 36.6362C45.773 39.568 45.8546 42.0058 46.0261 43.7698C46.0874 44.6028 46.2017 45.4113 46.2834 45.9707L46.3855 46.6567L46.4917 46.6322C47.2179 50.0248 48.8898 53.1424 51.3139 55.6244C53.738 58.1065 56.8153 59.8516 60.1898 60.6577C63.5642 61.4639 67.098 61.2983 70.3822 60.18C73.6665 59.0617 76.567 57.0365 78.7484 54.3386C80.9297 51.6407 82.3027 48.3804 82.7084 44.9347C83.1142 41.4891 82.5362 37.999 81.0413 34.8682C79.5464 31.7374 77.1956 29.0937 74.261 27.2431C71.3263 25.3925 67.9277 24.4105 64.4583 24.4107Z" fill="#94D4E9" fill-opacity="0.4"/>
</svg>
