<svg xmlns="http://www.w3.org/2000/svg" viewBox="0 0 19 20"><path fill="#183153" d="M6.3 19.8a8.162 8.162 0 003.15-.612c.998.414 2.07.622 3.15.612 3.28 0 5.85-1.75 5.85-3.986v-3.728c0-2.236-2.57-3.986-5.85-3.986-.152 0-.301.007-.45.015V3.9C12.15 1.71 9.58 0 6.3 0S.45 1.71.45 3.9v12c0 2.19 2.57 3.9 5.85 3.9zm10.35-3.986c0 1.034-1.663 2.186-4.05 2.186-2.387 0-4.05-1.152-4.05-2.186v-.833a7.496 7.496 0 004.05 1.09 7.496 7.496 0 004.05-1.09v.833zM12.6 9.9c2.387 0 4.05 1.152 4.05 2.186s-1.663 2.185-4.05 2.185c-2.387 0-4.05-1.152-4.05-2.185 0-1.033 1.663-2.186 4.05-2.186zM6.3 1.8c2.387 0 4.05 1.107 4.05 2.1 0 .992-1.663 2.1-4.05 2.1-2.387 0-4.05-1.107-4.05-2.1 0-.994 1.663-2.1 4.05-2.1zM2.25 6.734A7.62 7.62 0 006.3 7.8a7.62 7.62 0 004.05-1.066v1.663c-.98.247-1.88.746-2.61 1.446A6.925 6.925 0 016.3 10c-2.387 0-4.05-1.107-4.05-2.1V6.734zm0 4A7.628 7.628 0 006.3 11.8c.16 0 .315-.02.473-.028a2.79 2.79 0 00-.023.314v1.876c-.151.01-.297.038-.45.038-2.387 0-4.05-1.107-4.05-2.1v-1.166zm0 4A7.62 7.62 0 006.3 15.8c.151 0 .3-.012.45-.019v.033c.013.766.307 1.5.827 2.063-.421.08-.848.12-1.277.123-2.387 0-4.05-1.107-4.05-2.1v-1.166z"/></svg>
