<svg xmlns="http://www.w3.org/2000/svg" viewBox="0 0 18 18"><g fill="#183153" stroke="#183153" stroke-width=".9"><path d="M8.92 16.84C4.553 16.84 1 13.287 1 8.92S4.553 1 8.92 1s7.92 3.553 7.92 7.92-3.553 7.92-7.92 7.92zm0-14.738A6.826 6.826 0 002.102 8.92a6.826 6.826 0 006.818 6.818 6.826 6.826 0 006.818-6.818A6.826 6.826 0 008.92 2.102z"/><path d="M11.272 11.8a.518.518 0 01-.275-.079L8.453 10.14a.54.54 0 01-.253-.46V5.858c0-.297.236-.538.528-.538.291 0 .528.241.528.538v3.52l2.29 1.424a.544.544 0 01.177.74.525.525 0 01-.451.258h0z"/></g></svg>
